<svg width="290" height="236" viewBox="0 0 290 236" fill="none" xmlns="http://www.w3.org/2000/svg">
<path d="M48.7023 67.32C44.5209 67.32 41.2569 66.1467 38.9103 63.8C36.6063 61.4107 35.4543 58.2747 35.4543 54.392C35.4543 50.936 36.1369 47.9067 37.5023 45.304C38.8676 42.7013 40.6383 40.696 42.8142 39.288C44.9903 37.88 47.2729 37.176 49.6623 37.176C52.0089 37.176 53.8223 37.88 55.1023 39.288C56.4249 40.6533 57.0863 42.424 57.0863 44.6C57.0863 46.392 56.6809 47.9067 55.8703 49.144C55.1023 50.3813 54.0783 51 52.7983 51C51.9876 51 51.3263 50.808 50.8143 50.424C50.3449 50.04 50.1103 49.5067 50.1103 48.824C50.1103 48.5253 50.1529 48.184 50.2383 47.8C50.3236 47.416 50.3876 47.1387 50.4303 46.968C50.6436 46.328 50.7503 45.7307 50.7503 45.176C50.7503 44.6213 50.6009 44.1947 50.3022 43.896C50.0463 43.5973 49.6623 43.448 49.1503 43.448C48.1689 43.448 47.2516 43.896 46.3983 44.792C45.5449 45.6453 44.8623 46.8187 44.3503 48.312C43.8383 49.8053 43.5823 51.448 43.5823 53.24C43.5823 58.1893 45.7369 60.664 50.0463 60.664C51.7956 60.664 53.6729 60.088 55.6783 58.936C57.7263 57.7413 59.7316 55.9707 61.6943 53.624C62.2063 53.0267 62.7823 52.728 63.4223 52.728C63.9769 52.728 64.4036 52.984 64.7023 53.496C65.0436 54.008 65.2143 54.712 65.2143 55.608C65.2143 57.2293 64.8089 58.552 63.9983 59.576C61.9929 62.0507 59.5823 63.9707 56.7663 65.336C53.9929 66.6587 51.3049 67.32 48.7023 67.32ZM67.2878 67.32C64.6424 67.32 62.5304 66.36 60.9518 64.44C59.3731 62.52 58.5838 60.0027 58.5838 56.888C58.5838 53.4747 59.3731 50.2533 60.9518 47.224C62.5304 44.152 64.6211 41.6987 67.2238 39.864C69.8691 37.9867 72.6638 37.048 75.6078 37.048C76.5464 37.048 77.1651 37.24 77.4638 37.624C77.8051 37.9653 78.0824 38.6053 78.2958 39.544C79.1918 39.3733 80.1304 39.288 81.1118 39.288C83.2024 39.288 84.2478 40.0347 84.2478 41.528C84.2478 42.424 83.9278 44.5573 83.2878 47.928C82.3064 52.8347 81.8158 56.248 81.8158 58.168C81.8158 58.808 81.9651 59.32 82.2638 59.704C82.6051 60.088 83.0318 60.28 83.5438 60.28C84.3544 60.28 85.3358 59.768 86.4878 58.744C87.6398 57.6773 89.1971 55.9707 91.1598 53.624C91.6718 53.0267 92.2478 52.728 92.8878 52.728C93.4424 52.728 93.8691 52.984 94.1678 53.496C94.5091 54.008 94.6798 54.712 94.6798 55.608C94.6798 57.3147 94.2744 58.6373 93.4638 59.576C91.7144 61.752 89.8584 63.5867 87.8958 65.08C85.9331 66.5733 84.0344 67.32 82.1998 67.32C80.7918 67.32 79.4904 66.8507 78.2958 65.912C77.1438 64.9307 76.2691 63.608 75.6718 61.944C73.4531 65.528 70.6584 67.32 67.2878 67.32ZM69.5918 60.856C70.5304 60.856 71.4264 60.3013 72.2798 59.192C73.1331 58.0827 73.7518 56.6107 74.1358 54.776L76.5038 43C74.7118 43.0427 73.0478 43.7253 71.5118 45.048C70.0184 46.328 68.8238 48.0347 67.9278 50.168C67.0318 52.3013 66.5838 54.5627 66.5838 56.952C66.5838 58.2747 66.8398 59.256 67.3518 59.896C67.9064 60.536 68.6531 60.856 69.5918 60.856ZM118.022 52.728C118.577 52.728 119.004 52.984 119.302 53.496C119.644 54.008 119.814 54.712 119.814 55.608C119.814 57.3147 119.409 58.6373 118.598 59.576C116.764 61.8373 114.758 63.6933 112.582 65.144C110.406 66.5947 107.91 67.32 105.094 67.32C96.3903 67.32 92.0383 61.1973 92.0383 48.952C92.0383 47.0747 92.1023 45.176 92.2303 43.256H89.7343C88.4543 43.256 87.5796 43.0213 87.1103 42.552C86.6836 42.0827 86.4703 41.336 86.4703 40.312C86.4703 37.9227 87.4303 36.728 89.3503 36.728H92.9983C93.7236 32.0347 94.8329 27.7467 96.3263 23.864C97.8196 19.9813 99.6116 16.888 101.702 14.584C103.836 12.28 106.118 11.128 108.55 11.128C110.342 11.128 111.75 11.9173 112.774 13.496C113.798 15.0747 114.31 17.0587 114.31 19.448C114.31 26.0613 111.537 31.8213 105.99 36.728H113.158C113.841 36.728 114.332 36.8773 114.63 37.176C114.929 37.4747 115.078 38.0293 115.078 38.84C115.078 41.784 112.668 43.256 107.846 43.256H100.038C99.9529 45.3893 99.9103 47.0533 99.9103 48.248C99.9103 52.6853 100.422 55.8 101.446 57.592C102.513 59.384 104.177 60.28 106.438 60.28C108.273 60.28 109.894 59.7253 111.302 58.616C112.71 57.5067 114.374 55.8427 116.294 53.624C116.806 53.0267 117.382 52.728 118.022 52.728ZM106.822 17.272C106.182 17.272 105.457 18.0827 104.646 19.704C103.878 21.2827 103.132 23.5013 102.406 26.36C101.724 29.176 101.148 32.312 100.678 35.768C103.196 33.592 105.073 31.16 106.31 28.472C107.59 25.7413 108.23 23.2667 108.23 21.048C108.23 18.5307 107.761 17.272 106.822 17.272ZM126.827 67.32C122.646 67.32 119.382 66.1467 117.035 63.8C114.731 61.4107 113.579 58.2747 113.579 54.392C113.579 50.936 114.262 47.9067 115.627 45.304C116.993 42.7013 118.763 40.696 120.939 39.288C123.115 37.88 125.398 37.176 127.787 37.176C130.134 37.176 131.947 37.88 133.227 39.288C134.55 40.6533 135.211 42.424 135.211 44.6C135.211 46.392 134.806 47.9067 133.995 49.144C133.227 50.3813 132.203 51 130.923 51C130.113 51 129.451 50.808 128.939 50.424C128.47 50.04 128.235 49.5067 128.235 48.824C128.235 48.5253 128.278 48.184 128.363 47.8C128.449 47.416 128.513 47.1387 128.555 46.968C128.769 46.328 128.875 45.7307 128.875 45.176C128.875 44.6213 128.726 44.1947 128.427 43.896C128.171 43.5973 127.787 43.448 127.275 43.448C126.294 43.448 125.377 43.896 124.523 44.792C123.67 45.6453 122.987 46.8187 122.475 48.312C121.963 49.8053 121.707 51.448 121.707 53.24C121.707 58.1893 123.862 60.664 128.171 60.664C129.921 60.664 131.798 60.088 133.803 58.936C135.851 57.7413 137.857 55.9707 139.819 53.624C140.331 53.0267 140.907 52.728 141.547 52.728C142.102 52.728 142.529 52.984 142.827 53.496C143.169 54.008 143.339 54.712 143.339 55.608C143.339 57.2293 142.934 58.552 142.123 59.576C140.118 62.0507 137.707 63.9707 134.891 65.336C132.118 66.6587 129.43 67.32 126.827 67.32ZM173.686 52.728C174.24 52.728 174.667 52.984 174.966 53.496C175.307 54.008 175.478 54.712 175.478 55.608C175.478 57.3147 175.072 58.6373 174.262 59.576C172.299 61.8373 170.272 63.6933 168.182 65.144C166.134 66.5947 163.787 67.32 161.142 67.32C158.966 67.32 157.323 66.7013 156.214 65.464C155.104 64.184 154.55 62.3493 154.55 59.96C154.55 58.7653 154.848 56.632 155.446 53.56C156 50.872 156.278 49.016 156.278 47.992C156.278 47.3093 156.043 46.968 155.574 46.968C155.019 46.968 154.23 47.6933 153.206 49.144C152.182 50.552 151.158 52.4293 150.134 54.776C149.11 57.1227 148.278 59.5973 147.638 62.2C146.827 65.6133 144.822 67.32 141.622 67.32C140.342 67.32 139.488 66.872 139.062 65.976C138.678 65.0373 138.486 63.3733 138.486 60.984C138.486 59.6187 138.507 58.5307 138.55 57.72L138.614 52.6C138.614 46.0293 139.275 39.1813 140.598 32.056C141.963 24.9307 143.947 18.9573 146.55 14.136C149.195 9.272 152.352 6.84 156.022 6.84C157.984 6.84 159.563 7.69333 160.758 9.4C161.995 11.064 162.614 13.24 162.614 15.928C162.614 20.2373 161.355 24.7173 158.838 29.368C156.32 33.976 152.224 39.3733 146.55 45.56C146.422 47.7787 146.358 50.0613 146.358 52.408C147.766 48.7813 149.323 45.8373 151.03 43.576C152.779 41.272 154.486 39.6293 156.15 38.648C157.856 37.6667 159.414 37.176 160.822 37.176C163.595 37.176 164.982 38.5627 164.982 41.336C164.982 43 164.512 46.008 163.574 50.36C162.763 54.072 162.358 56.5253 162.358 57.72C162.358 59.4267 162.976 60.28 164.214 60.28C165.067 60.28 166.07 59.768 167.222 58.744C168.416 57.6773 169.995 55.9707 171.958 53.624C172.47 53.0267 173.046 52.728 173.686 52.728ZM154.678 13.176C153.91 13.176 153.056 14.2853 152.118 16.504C151.179 18.68 150.262 21.6453 149.366 25.4C148.512 29.112 147.808 33.1653 147.254 37.56C149.899 34.4453 152.075 31.0533 153.782 27.384C155.531 23.7147 156.406 20.3867 156.406 17.4C156.406 16.0347 156.256 14.9893 155.958 14.264C155.659 13.5387 155.232 13.176 154.678 13.176ZM177.446 51.256C176.422 51.3413 175.59 51.0427 174.95 50.36C174.353 49.6773 174.054 48.7173 174.054 47.48C174.054 46.328 174.332 45.4747 174.886 44.92C175.484 44.3653 176.337 44.0453 177.446 43.96L190.566 42.68C191.633 42.5947 192.444 42.872 192.998 43.512C193.596 44.1093 193.894 45.0053 193.894 46.2C193.894 48.504 192.785 49.7627 190.566 49.976L177.446 51.256ZM205.819 67.32C203.899 67.32 202.32 66.4453 201.083 64.696C199.888 62.904 199.291 60.6853 199.291 58.04C199.291 54.84 199.504 51.9173 199.931 49.272C200.357 46.584 201.061 43.7467 202.043 40.76C202.469 39.48 203.067 38.5627 203.835 38.008C204.603 37.4533 205.819 37.176 207.483 37.176C208.421 37.176 209.061 37.3253 209.403 37.624C209.787 37.9227 209.979 38.3707 209.979 38.968C209.979 39.3093 209.744 40.4613 209.275 42.424C208.848 44.0027 208.507 45.432 208.251 46.712C207.397 51.192 206.971 54.1787 206.971 55.672C206.971 56.568 207.077 57.208 207.291 57.592C207.504 57.9333 207.845 58.104 208.315 58.104C208.955 58.104 209.744 57.464 210.683 56.184C211.664 54.904 212.688 52.9627 213.755 50.36C214.864 47.7573 215.931 44.5573 216.955 40.76C217.296 39.48 217.808 38.5627 218.491 38.008C219.216 37.4533 220.283 37.176 221.691 37.176C222.672 37.176 223.355 37.304 223.739 37.56C224.123 37.7733 224.315 38.2 224.315 38.84C224.315 39.9067 223.781 42.8293 222.715 47.608C221.52 53.0693 220.923 56.44 220.923 57.72C220.923 58.5307 221.093 59.1707 221.435 59.64C221.776 60.0667 222.224 60.28 222.779 60.28C223.632 60.28 224.635 59.768 225.787 58.744C226.981 57.6773 228.56 55.9707 230.523 53.624C231.035 53.0267 231.611 52.728 232.251 52.728C232.805 52.728 233.232 52.984 233.531 53.496C233.872 54.008 234.043 54.712 234.043 55.608C234.043 57.3147 233.637 58.6373 232.827 59.576C230.992 61.8373 229.008 63.6933 226.875 65.144C224.784 66.5947 222.395 67.32 219.707 67.32C217.659 67.32 216.144 66.5307 215.163 64.952C214.224 63.3733 213.755 61.1547 213.755 58.296C213.029 61.1973 211.941 63.4373 210.491 65.016C209.04 66.552 207.483 67.32 205.819 67.32ZM263.029 52.728C263.584 52.728 264.011 52.984 264.309 53.496C264.651 54.008 264.821 54.712 264.821 55.608C264.821 57.3147 264.416 58.6373 263.605 59.576C261.771 61.8373 259.787 63.6933 257.653 65.144C255.563 66.5947 253.173 67.32 250.485 67.32C248.224 67.32 246.389 66.5093 244.981 64.888C242.549 66.4667 240.011 67.2773 237.365 67.32C236.811 75.5547 235.552 82.424 233.589 87.928C231.627 93.4747 228.747 96.248 224.949 96.248C222.645 96.248 220.939 95.416 219.829 93.752C218.72 92.088 218.165 89.784 218.165 86.84C218.165 82.6587 219.125 77.7733 221.045 72.184C222.965 66.6373 225.931 60.5147 229.941 53.816C229.941 47.5867 229.899 43.256 229.813 40.824C229.771 39.5867 230.261 38.6053 231.285 37.88C232.309 37.1547 233.589 36.792 235.125 36.792C236.021 36.792 236.661 36.984 237.045 37.368C237.472 37.7093 237.707 38.4133 237.749 39.48C237.749 40.5467 237.771 41.336 237.813 41.848C239.179 40.1413 240.523 38.9253 241.845 38.2C243.168 37.432 244.576 37.048 246.069 37.048C248.459 37.048 250.4 38.008 251.893 39.928C253.429 41.848 254.197 44.3653 254.197 47.48C254.197 49.7413 253.835 51.9387 253.109 54.072C252.384 56.2053 251.381 58.1467 250.101 59.896C250.997 60.152 251.744 60.28 252.341 60.28C253.749 60.28 255.093 59.768 256.373 58.744C257.653 57.72 259.296 56.0133 261.301 53.624C261.813 53.0267 262.389 52.728 263.029 52.728ZM237.685 61.176C239.221 60.8347 240.629 60.0027 241.909 58.68C243.232 57.3147 244.277 55.6507 245.045 53.688C245.813 51.6827 246.197 49.592 246.197 47.416C246.197 46.136 245.941 45.176 245.429 44.536C244.917 43.8533 244.235 43.512 243.381 43.512C241.845 43.512 239.989 45.1333 237.813 48.376C237.771 50.2533 237.749 53.0053 237.749 56.632C237.749 58.5947 237.728 60.1093 237.685 61.176ZM225.461 89.976C226.613 89.976 227.573 87.4587 228.341 82.424C229.109 77.432 229.6 71.2027 229.813 63.736C227.979 68.0027 226.528 72.0773 225.461 75.96C224.395 79.8427 223.861 83.1067 223.861 85.752C223.861 87.1173 224.032 88.1627 224.373 88.888C224.672 89.6133 225.035 89.976 225.461 89.976Z" fill="#7396A9"/>
<path d="M15.4766 141.225C14.7474 141.225 14.0736 141.146 13.4551 140.99C12.8431 140.834 12.3451 140.632 11.9609 140.385L12.166 139.008C13.2533 139.587 14.321 139.877 15.3691 139.877C16.9577 139.877 17.7747 139.317 17.8203 138.197C17.8203 137.722 17.651 137.348 17.3125 137.074C16.974 136.801 16.3099 136.495 15.3203 136.156L14.5098 135.873C13.5723 135.561 12.9017 135.173 12.498 134.711C12.1009 134.249 11.8991 133.673 11.8926 132.982C11.8926 132.143 12.2279 131.446 12.8984 130.893C13.5755 130.339 14.5 130.062 15.6719 130.062C16.8828 130.062 17.9863 130.297 18.9824 130.766L18.5039 132.016C17.4948 131.599 16.5508 131.391 15.6719 131.391C14.9883 131.391 14.4512 131.527 14.0605 131.801C13.6764 132.068 13.4844 132.445 13.4844 132.934C13.4844 133.35 13.6243 133.669 13.9043 133.891C14.1842 134.112 14.7441 134.366 15.584 134.652C15.7988 134.73 16.069 134.822 16.3945 134.926C17.4753 135.277 18.2402 135.694 18.6895 136.176C19.1387 136.651 19.3633 137.296 19.3633 138.109C19.3503 139.099 18.9954 139.867 18.2988 140.414C17.6022 140.954 16.6615 141.225 15.4766 141.225ZM25.0176 141.195C23.9629 141.195 23.2142 140.938 22.7715 140.424C22.3288 139.91 22.0944 139.079 22.0684 137.934V131.498H20.4766L20.5449 130.424L22.0586 130.287L22.6152 127.836L23.6895 127.797V130.287H26.668V131.498H23.6895V137.641C23.6895 138.454 23.8132 139.027 24.0605 139.359C24.3079 139.691 24.7311 139.857 25.3301 139.857C25.5449 139.857 26.0104 139.805 26.7266 139.701L26.7949 140.99C26.0202 141.127 25.4277 141.195 25.0176 141.195ZM31.5898 139.906C32.3646 139.906 33.0449 139.695 33.6309 139.271C34.2233 138.842 34.6042 138.266 34.7734 137.543V135.736C34.7409 135.736 34.5423 135.753 34.1777 135.785C33.8197 135.818 33.5853 135.837 33.4746 135.844C32.0618 135.967 31.0755 136.199 30.5156 136.537C29.9622 136.876 29.6855 137.419 29.6855 138.168C29.6855 138.741 29.8548 139.174 30.1934 139.467C30.5319 139.76 30.9974 139.906 31.5898 139.906ZM35.1348 141C35.0371 140.583 34.9427 140.134 34.8516 139.652C34.2591 140.245 33.7025 140.655 33.1816 140.883C32.6608 141.111 32.0488 141.225 31.3457 141.225C30.3431 141.225 29.5358 140.964 28.9238 140.443C28.3184 139.916 28.0156 139.161 28.0156 138.178C28.0156 137.084 28.429 136.273 29.2559 135.746C30.0892 135.219 31.2871 134.89 32.8496 134.76C33.0645 134.74 33.3867 134.714 33.8164 134.682C34.2526 134.643 34.5781 134.613 34.793 134.594V133.646C34.793 132.891 34.6172 132.331 34.2656 131.967C33.9141 131.602 33.3607 131.42 32.6055 131.42C31.5508 131.42 30.4863 131.68 29.4121 132.201C29.3796 132.123 29.2949 131.898 29.1582 131.527C29.0215 131.15 28.9499 130.954 28.9434 130.941C29.4186 130.674 29.9818 130.463 30.6328 130.307C31.2904 130.144 31.9577 130.062 32.6348 130.062C33.9694 130.062 34.9297 130.355 35.5156 130.941C36.1081 131.521 36.4043 132.51 36.4043 133.91V141H35.1348ZM37.8496 130.287H39.5781L42.957 139.203L45.9648 130.287H47.6934C44.8027 138.243 43.3086 142.344 43.2109 142.592C42.7617 143.718 42.2181 144.542 41.5801 145.062C40.9421 145.59 40.1022 145.854 39.0605 145.854C38.748 145.854 38.4193 145.827 38.0742 145.775L37.9766 144.389C38.3411 144.415 38.6146 144.428 38.7969 144.428C39.5326 144.428 40.0892 144.291 40.4668 144.018C40.8509 143.751 41.1927 143.246 41.4922 142.504C41.7591 141.82 41.9577 141.293 42.0879 140.922L37.8496 130.287ZM58.7285 141.225C57.153 141.225 55.9193 140.714 55.0273 139.691C54.1419 138.669 53.6992 137.331 53.6992 135.678C53.7057 134.011 54.1582 132.66 55.0566 131.625C55.9616 130.583 57.1986 130.062 58.7676 130.062C59.321 130.062 59.8548 130.131 60.3691 130.268C60.89 130.404 61.3001 130.583 61.5996 130.805L61.1504 132.074C60.3887 131.664 59.5846 131.459 58.7383 131.459C57.7031 131.459 56.8828 131.837 56.2773 132.592C55.6784 133.347 55.3789 134.379 55.3789 135.688C55.3789 136.964 55.6751 137.976 56.2676 138.725C56.8665 139.467 57.6934 139.838 58.748 139.838C59.5879 139.838 60.4473 139.61 61.3262 139.154L61.5312 140.453C60.8216 140.967 59.8874 141.225 58.7285 141.225ZM64.8418 135.668C64.8418 136.938 65.1217 137.956 65.6816 138.725C66.248 139.486 67.0716 139.867 68.1523 139.867C69.2201 139.867 70.0241 139.486 70.5645 138.725C71.1113 137.963 71.3848 136.938 71.3848 135.648C71.3848 134.34 71.1146 133.311 70.5742 132.562C70.0404 131.807 69.2233 131.43 68.123 131.43C67.0553 131.43 66.2415 131.814 65.6816 132.582C65.1217 133.35 64.8418 134.379 64.8418 135.668ZM73.0742 135.639C73.0742 137.299 72.6315 138.646 71.7461 139.682C70.8607 140.71 69.6367 141.225 68.0742 141.225C66.5703 141.225 65.3724 140.704 64.4805 139.662C63.5951 138.62 63.1523 137.283 63.1523 135.648C63.1523 133.982 63.5983 132.634 64.4902 131.605C65.3822 130.577 66.6061 130.062 68.1621 130.062C69.6921 130.062 70.8932 130.58 71.7656 131.615C72.638 132.644 73.0742 133.985 73.0742 135.639ZM75.3887 141V130.287H76.7559L76.9609 131.82C77.3841 131.293 77.9115 130.87 78.543 130.551C79.181 130.225 79.8678 130.062 80.6035 130.062C81.8405 130.062 82.7552 130.411 83.3477 131.107C83.9401 131.798 84.2363 132.862 84.2363 134.301V141H82.6055C82.6055 136.703 82.6022 134.402 82.5957 134.096C82.5697 133.184 82.3841 132.517 82.0391 132.094C81.7005 131.671 81.1309 131.459 80.3301 131.459C79.4902 131.459 78.7904 131.661 78.2305 132.064C77.6706 132.468 77.306 132.992 77.1367 133.637C77.0716 134.073 77.0391 134.574 77.0391 135.141V141H75.3887ZM86.9512 141V130.287H88.3184L88.5234 131.82C88.9466 131.293 89.474 130.87 90.1055 130.551C90.7435 130.225 91.4303 130.062 92.166 130.062C93.403 130.062 94.3177 130.411 94.9102 131.107C95.5026 131.798 95.7988 132.862 95.7988 134.301V141H94.168C94.168 136.703 94.1647 134.402 94.1582 134.096C94.1322 133.184 93.9466 132.517 93.6016 132.094C93.263 131.671 92.6934 131.459 91.8926 131.459C91.0527 131.459 90.3529 131.661 89.793 132.064C89.2331 132.468 88.8685 132.992 88.6992 133.637C88.6341 134.073 88.6016 134.574 88.6016 135.141V141H86.9512ZM104.686 132.27C104.21 131.697 103.556 131.41 102.723 131.41C101.889 131.41 101.209 131.706 100.682 132.299C100.154 132.885 99.8451 133.689 99.7539 134.711H105.408C105.408 133.65 105.167 132.836 104.686 132.27ZM103.045 141.225C101.489 141.225 100.262 140.73 99.3633 139.74C98.4714 138.751 98.0254 137.396 98.0254 135.678C98.0254 134.018 98.4583 132.673 99.3242 131.645C100.19 130.609 101.329 130.082 102.742 130.062C104.07 130.062 105.122 130.518 105.896 131.43C106.678 132.335 107.068 133.546 107.068 135.062C107.068 135.141 107.065 135.284 107.059 135.492C107.059 135.701 107.059 135.85 107.059 135.941H99.7051C99.7246 137.159 100.037 138.109 100.643 138.793C101.255 139.47 102.075 139.809 103.104 139.809C104.236 139.809 105.372 139.509 106.512 138.91L106.766 140.229C105.678 140.893 104.438 141.225 103.045 141.225ZM113.865 141.225C112.29 141.225 111.056 140.714 110.164 139.691C109.279 138.669 108.836 137.331 108.836 135.678C108.842 134.011 109.295 132.66 110.193 131.625C111.098 130.583 112.335 130.062 113.904 130.062C114.458 130.062 114.992 130.131 115.506 130.268C116.027 130.404 116.437 130.583 116.736 130.805L116.287 132.074C115.525 131.664 114.721 131.459 113.875 131.459C112.84 131.459 112.02 131.837 111.414 132.592C110.815 133.347 110.516 134.379 110.516 135.688C110.516 136.964 110.812 137.976 111.404 138.725C112.003 139.467 112.83 139.838 113.885 139.838C114.725 139.838 115.584 139.61 116.463 139.154L116.668 140.453C115.958 140.967 115.024 141.225 113.865 141.225ZM122.205 141.195C121.15 141.195 120.402 140.938 119.959 140.424C119.516 139.91 119.282 139.079 119.256 137.934V131.498H117.664L117.732 130.424L119.246 130.287L119.803 127.836L120.877 127.797V130.287H123.855V131.498H120.877V137.641C120.877 138.454 121.001 139.027 121.248 139.359C121.495 139.691 121.919 139.857 122.518 139.857C122.732 139.857 123.198 139.805 123.914 139.701L123.982 140.99C123.208 141.127 122.615 141.195 122.205 141.195ZM131.775 132.27C131.3 131.697 130.646 131.41 129.812 131.41C128.979 131.41 128.299 131.706 127.771 132.299C127.244 132.885 126.935 133.689 126.844 134.711H132.498C132.498 133.65 132.257 132.836 131.775 132.27ZM130.135 141.225C128.579 141.225 127.352 140.73 126.453 139.74C125.561 138.751 125.115 137.396 125.115 135.678C125.115 134.018 125.548 132.673 126.414 131.645C127.28 130.609 128.419 130.082 129.832 130.062C131.16 130.062 132.212 130.518 132.986 131.43C133.768 132.335 134.158 133.546 134.158 135.062C134.158 135.141 134.155 135.284 134.148 135.492C134.148 135.701 134.148 135.85 134.148 135.941H126.795C126.814 137.159 127.127 138.109 127.732 138.793C128.344 139.47 129.165 139.809 130.193 139.809C131.326 139.809 132.462 139.509 133.602 138.91L133.855 140.229C132.768 140.893 131.528 141.225 130.135 141.225ZM140.604 139.818C141.678 139.818 142.475 139.473 142.996 138.783C143.523 138.093 143.787 137.107 143.787 135.824C143.787 134.379 143.533 133.292 143.025 132.562C142.524 131.827 141.71 131.459 140.584 131.459C140.083 131.459 139.64 131.566 139.256 131.781C138.872 131.996 138.562 132.296 138.328 132.68C138.094 133.064 137.915 133.507 137.791 134.008C137.674 134.503 137.615 135.046 137.615 135.639C137.615 136.472 137.716 137.195 137.918 137.807C138.126 138.419 138.458 138.907 138.914 139.271C139.37 139.636 139.933 139.818 140.604 139.818ZM143.816 139.447C143.465 139.988 142.996 140.417 142.41 140.736C141.824 141.055 141.17 141.215 140.447 141.215C139.035 141.215 137.928 140.714 137.127 139.711C136.326 138.702 135.926 137.331 135.926 135.6C135.926 133.946 136.333 132.611 137.146 131.596C137.96 130.574 139.051 130.062 140.418 130.062C141.128 130.062 141.795 130.219 142.42 130.531C143.051 130.837 143.523 131.251 143.836 131.771L143.807 130.844V126.127L145.418 126.029V141H144.031L143.816 139.447ZM162.508 141C161.004 136.195 160.073 133.204 159.715 132.025C159.513 132.742 159.282 133.516 159.021 134.35C158.761 135.183 158.533 135.899 158.338 136.498C158.143 137.097 157.889 137.872 157.576 138.822C157.264 139.773 157.026 140.499 156.863 141H155.105L152.049 130.287H153.738L156.033 139.057C156.352 138.015 157.29 135.092 158.846 130.287H160.691C162.241 135.196 163.152 138.109 163.426 139.027L165.691 130.287H167.361L164.275 141H162.508ZM170.867 130.287V141H169.227V130.287H170.867ZM170.867 126.391V128.324H169.227V126.391H170.867ZM177.361 141.195C176.307 141.195 175.558 140.938 175.115 140.424C174.673 139.91 174.438 139.079 174.412 137.934V131.498H172.82L172.889 130.424L174.402 130.287L174.959 127.836L176.033 127.797V130.287H179.012V131.498H176.033V137.641C176.033 138.454 176.157 139.027 176.404 139.359C176.652 139.691 177.075 139.857 177.674 139.857C177.889 139.857 178.354 139.805 179.07 139.701L179.139 140.99C178.364 141.127 177.771 141.195 177.361 141.195ZM188.094 141V134.525C188.094 133.451 187.921 132.67 187.576 132.182C187.238 131.693 186.642 131.449 185.789 131.449C184.969 131.449 184.275 131.654 183.709 132.064C183.149 132.475 182.785 133.005 182.615 133.656C182.557 134.145 182.527 134.688 182.527 135.287V141H180.896V126.127L182.527 126.029V130.385C182.527 130.756 182.514 131.215 182.488 131.762C183.406 130.629 184.624 130.062 186.141 130.062C188.53 130.062 189.725 131.465 189.725 134.271V141H188.094ZM202.908 132.27C202.433 131.697 201.779 131.41 200.945 131.41C200.112 131.41 199.432 131.706 198.904 132.299C198.377 132.885 198.068 133.689 197.977 134.711H203.631C203.631 133.65 203.39 132.836 202.908 132.27ZM201.268 141.225C199.712 141.225 198.484 140.73 197.586 139.74C196.694 138.751 196.248 137.396 196.248 135.678C196.248 134.018 196.681 132.673 197.547 131.645C198.413 130.609 199.552 130.082 200.965 130.062C202.293 130.062 203.344 130.518 204.119 131.43C204.9 132.335 205.291 133.546 205.291 135.062C205.291 135.141 205.288 135.284 205.281 135.492C205.281 135.701 205.281 135.85 205.281 135.941H197.928C197.947 137.159 198.26 138.109 198.865 138.793C199.477 139.47 200.298 139.809 201.326 139.809C202.459 139.809 203.595 139.509 204.734 138.91L204.988 140.229C203.901 140.893 202.661 141.225 201.268 141.225ZM210.301 141L206.15 130.287H207.898L210.262 136.654C210.262 136.654 210.587 137.559 211.238 139.369C211.46 138.673 211.766 137.774 212.156 136.674C212.651 135.287 213.419 133.158 214.461 130.287H216.199L212.078 141H210.301ZM223.67 132.27C223.195 131.697 222.54 131.41 221.707 131.41C220.874 131.41 220.193 131.706 219.666 132.299C219.139 132.885 218.829 133.689 218.738 134.711H224.393C224.393 133.65 224.152 132.836 223.67 132.27ZM222.029 141.225C220.473 141.225 219.246 140.73 218.348 139.74C217.456 138.751 217.01 137.396 217.01 135.678C217.01 134.018 217.443 132.673 218.309 131.645C219.174 130.609 220.314 130.082 221.727 130.062C223.055 130.062 224.106 130.518 224.881 131.43C225.662 132.335 226.053 133.546 226.053 135.062C226.053 135.141 226.049 135.284 226.043 135.492C226.043 135.701 226.043 135.85 226.043 135.941H218.689C218.709 137.159 219.021 138.109 219.627 138.793C220.239 139.47 221.059 139.809 222.088 139.809C223.221 139.809 224.357 139.509 225.496 138.91L225.75 140.229C224.663 140.893 223.423 141.225 222.029 141.225ZM233.123 130.189C233.416 130.189 233.683 130.209 233.924 130.248L233.865 131.752C233.566 131.7 233.305 131.674 233.084 131.674C232.173 131.674 231.43 131.993 230.857 132.631C230.291 133.262 230.008 134.047 230.008 134.984V141H228.377C228.37 134.424 228.367 130.854 228.367 130.287H229.725L229.881 132.211C230.252 131.605 230.724 131.117 231.297 130.746C231.87 130.375 232.479 130.189 233.123 130.189ZM234.236 130.287H235.965L239.344 139.203L242.352 130.287H244.08C241.189 138.243 239.695 142.344 239.598 142.592C239.148 143.718 238.605 144.542 237.967 145.062C237.329 145.59 236.489 145.854 235.447 145.854C235.135 145.854 234.806 145.827 234.461 145.775L234.363 144.389C234.728 144.415 235.001 144.428 235.184 144.428C235.919 144.428 236.476 144.291 236.854 144.018C237.238 143.751 237.579 143.246 237.879 142.504C238.146 141.82 238.344 141.293 238.475 140.922L234.236 130.287ZM246.58 135.668C246.58 136.938 246.86 137.956 247.42 138.725C247.986 139.486 248.81 139.867 249.891 139.867C250.958 139.867 251.762 139.486 252.303 138.725C252.85 137.963 253.123 136.938 253.123 135.648C253.123 134.34 252.853 133.311 252.312 132.562C251.779 131.807 250.962 131.43 249.861 131.43C248.794 131.43 247.98 131.814 247.42 132.582C246.86 133.35 246.58 134.379 246.58 135.668ZM254.812 135.639C254.812 137.299 254.37 138.646 253.484 139.682C252.599 140.71 251.375 141.225 249.812 141.225C248.309 141.225 247.111 140.704 246.219 139.662C245.333 138.62 244.891 137.283 244.891 135.648C244.891 133.982 245.337 132.634 246.229 131.605C247.12 130.577 248.344 130.062 249.9 130.062C251.43 130.062 252.632 130.58 253.504 131.615C254.376 132.644 254.812 133.985 254.812 135.639ZM257.127 141V130.287H258.494L258.699 131.82C259.122 131.293 259.65 130.87 260.281 130.551C260.919 130.225 261.606 130.062 262.342 130.062C263.579 130.062 264.493 130.411 265.086 131.107C265.678 131.798 265.975 132.862 265.975 134.301V141H264.344C264.344 136.703 264.34 134.402 264.334 134.096C264.308 133.184 264.122 132.517 263.777 132.094C263.439 131.671 262.869 131.459 262.068 131.459C261.229 131.459 260.529 131.661 259.969 132.064C259.409 132.468 259.044 132.992 258.875 133.637C258.81 134.073 258.777 134.574 258.777 135.141V141H257.127ZM274.861 132.27C274.386 131.697 273.732 131.41 272.898 131.41C272.065 131.41 271.385 131.706 270.857 132.299C270.33 132.885 270.021 133.689 269.93 134.711H275.584C275.584 133.65 275.343 132.836 274.861 132.27ZM273.221 141.225C271.665 141.225 270.438 140.73 269.539 139.74C268.647 138.751 268.201 137.396 268.201 135.678C268.201 134.018 268.634 132.673 269.5 131.645C270.366 130.609 271.505 130.082 272.918 130.062C274.246 130.062 275.298 130.518 276.072 131.43C276.854 132.335 277.244 133.546 277.244 135.062C277.244 135.141 277.241 135.284 277.234 135.492C277.234 135.701 277.234 135.85 277.234 135.941H269.881C269.9 137.159 270.213 138.109 270.818 138.793C271.43 139.47 272.251 139.809 273.279 139.809C274.412 139.809 275.548 139.509 276.688 138.91L276.941 140.229C275.854 140.893 274.614 141.225 273.221 141.225Z" fill="#7396A9"/>
</svg>
